<?xml version="1.0" encoding="UTF-8"?>
<svg width="256px" height="256px" viewBox="0 0 256 256" version="1.1" xmlns="http://www.w3.org/2000/svg" xmlns:xlink="http://www.w3.org/1999/xlink">
    <title>arrows_logo</title>
    <g id="Page-1" stroke="none" stroke-width="1" fill="none" fill-rule="evenodd">
        <g id="Group-2" transform="translate(2.000000, 13.000000)">
            <path d="M36.5806452,81 L215.419355,81 C235.622287,81 252,97.3416066 252,117.5 C252,137.658393 235.622287,154 215.419355,154 L36.5806452,154 C16.3777127,154 0,137.658393 0,117.5 C0,97.3416066 16.3777127,81 36.5806452,81 Z" id="Rectangle-Copy-11" fill="#F2C44E"></path>
            <path d="M160.189123,225.260295 L240.330033,144.595588 C254.556656,130.275981 254.556656,107.059312 240.330033,92.739705 C226.103411,78.4200983 203.037499,78.4200983 188.810877,92.739705 L108.669967,173.404412 C94.4433444,187.724019 94.4433444,210.940688 108.669967,225.260295 C122.896589,239.579902 145.962501,239.579902 160.189123,225.260295 Z" id="Rectangle-Copy-9" fill-opacity="0.8" fill="#F58220"></path>
            <path d="M160.189123,10.739705 L240.330033,91.404412 C254.556656,105.724019 254.556656,128.940688 240.330033,143.260295 C226.103411,157.579902 203.037499,157.579902 188.810877,143.260295 L108.669967,62.595588 C94.4433444,48.2759814 94.4433444,25.0593117 108.669967,10.739705 C122.896589,-3.57990167 145.962501,-3.57990167 160.189123,10.739705 Z" id="Rectangle-Copy-10" fill-opacity="0.8" fill="#FDD66E"></path>
        </g>
    </g>
</svg>