<?xml version="1.0" encoding="UTF-8"?>
<svg width="155px" height="172px" viewBox="0 0 155 172" version="1.1" xmlns="http://www.w3.org/2000/svg" xmlns:xlink="http://www.w3.org/1999/xlink">
    <!-- Generator: Sketch 52.3 (67297) - http://www.bohemiancoding.com/sketch -->
    <title>neo4j_icon</title>
    <desc>Created with Sketch.</desc>
    <g id="Page-1" stroke="none" stroke-width="1" fill="none" fill-rule="evenodd">
        <g id="neo4j_logo_white_hires-(1)" transform="translate(3.000000, 0.000000)">
            <path d="M146,78.0001768 C146,118.316684 113.317038,151 73.0001768,151 C32.6833157,151 0,118.316684 0,78.0001768 C0,37.6833157 32.6833157,5 73.0001768,5 C113.317038,5 146,37.6833157 146,78.0001768" id="Stroke-1" stroke="#000000" stroke-width="5"></path>
            <path d="M33,54.000545 C33,57.3123808 30.3127441,60 27.0001817,60 C23.6858025,60 21,57.3123808 21,54.000545 C21,50.6847125 23.6858025,48 27.0001817,48 C30.3127441,48 33,50.6847125 33,54.000545" id="Fill-3" fill="#000000"></path>
            <path d="M33,70.0001817 C33,73.3120174 30.3127441,76 26.9998183,76 C23.6858025,76 21,73.3120174 21,70.0001817 C21,66.6847125 23.6858025,64 26.9998183,64 C30.3127441,64 33,66.6847125 33,70.0001817" id="Fill-4" fill="#000000"></path>
            <path d="M37,87.0001817 C37,90.3120174 34.3131075,93 31.0001817,93 C27.6858025,93 25,90.3120174 25,87.0001817 C25,83.6847125 27.6858025,81 31.0001817,81 C34.3131075,81 37,83.6847125 37,87.0001817" id="Fill-5" fill="#000000"></path>
            <path d="M45,102.000182 C45,105.312017 42.3127441,108 38.9998183,108 C35.6858025,108 33,105.312017 33,102.000182 C33,98.6843492 35.6858025,96 38.9998183,96 C42.3127441,96 45,98.6843492 45,102.000182" id="Fill-6" fill="#000000"></path>
            <path d="M107,123.000182 C107,126.312017 104.312744,129 100.999818,129 C97.6854392,129 95,126.312017 95,123.000182 C95,119.684349 97.6854392,117 100.999818,117 C104.312744,117 107,119.684349 107,123.000182" id="Fill-7" fill="#000000"></path>
            <path d="M118,111.000182 C118,114.312017 115.312744,117 111.999818,117 C108.685803,117 106,114.312017 106,111.000182 C106,107.684349 108.685803,105 111.999818,105 C115.312744,105 118,107.684349 118,111.000182" id="Fill-8" fill="#000000"></path>
            <path d="M87,22.0001817 C87,25.3120174 84.3127441,28 81.0001817,28 C77.6858025,28 75,25.3120174 75,22.0001817 C75,18.6843492 77.6858025,16 81.0001817,16 C84.3127441,16 87,18.6843492 87,22.0001817" id="Fill-9" fill="#000000"></path>
            <path d="M72,17.0001817 C72,20.3120174 69.3127441,23 65.9998183,23 C62.6854392,23 60,20.3120174 60,17.0001817 C60,13.6843492 62.6854392,11 65.9998183,11 C69.3127441,11 72,13.6843492 72,17.0001817" id="Fill-10" fill="#000000"></path>
            <path d="M152,61 C152,82.5393455 134.538991,100 113,100 C91.4606545,100 74,82.5393455 74,61 C74,39.4613636 91.4606545,22 113,22 C134.538991,22 152,39.4613636 152,61" id="Fill-11" fill="#000000"></path>
            <path d="M92,140 C92,157.672889 77.6728889,172 60,172 C42.3267556,172 28,157.672889 28,140 C28,122.326756 42.3267556,108 60,108 C77.6728889,108 92,122.326756 92,140" id="Fill-13" fill="#000000"></path>
            <path d="M55,21 C55,32.59795 45.59795,42 34,42 C22.40205,42 13,32.59795 13,21 C13,9.40205 22.40205,0 34,0 C45.59795,0 55,9.40205 55,21" id="Fill-16" fill="#000000"></path>
        </g>
    </g>
</svg>